<?xml version="1.0" standalone="no"?>
<!DOCTYPE svg PUBLIC "-//W3C//DTD SVG 20010904//EN"
 "http://www.w3.org/TR/2001/REC-SVG-20010904/DTD/svg10.dtd">
<svg version="1.0" xmlns="http://www.w3.org/2000/svg"
 width="500.000000pt" height="500.000000pt" viewBox="0 0 500.000000 500.000000"
 preserveAspectRatio="xMidYMid meet">

<g transform="translate(0.000000,500.000000) scale(0.100000,-0.100000)"
fill="#000000" stroke="none">
<path d="M2292 4237 l-244 -30 -94 -125 -94 -125 -177 -109 c-98 -61 -191
-116 -206 -124 -36 -19 -90 -20 -203 -4 -170 24 -340 -15 -374 -87 l-15 -32
-193 -36 -192 -37 0 -1033 0 -1032 50 -21 49 -21 3 -117 3 -118 341 -152 342
-152 438 135 439 135 260 -57 c143 -31 328 -79 410 -106 83 -26 249 -79 370
-118 121 -38 260 -84 310 -101 326 -117 700 28 969 375 378 486 454 1225 177
1713 -95 167 -212 281 -363 355 l-87 42 -1 300 c0 164 -3 302 -8 306 -4 3
-169 61 -366 128 l-360 122 -214 -42 -214 -42 -56 62 -57 63 -199 59 c-110 32
-200 58 -200 58 -1 -1 -111 -15 -244 -32z m403 -45 c92 -32 132 -51 121 -55
-32 -12 -67 -7 -172 25 l-105 32 -155 -19 c-85 -10 -157 -15 -160 -12 -3 3 30
13 73 22 43 10 112 25 153 35 41 10 82 18 92 19 9 1 78 -21 153 -47z m299
-213 c48 -55 86 -102 84 -104 -9 -9 -613 -111 -616 -103 -9 21 28 38 177 79
88 24 158 45 156 47 -4 4 -254 -35 -287 -44 -10 -3 -18 -1 -18 3 0 27 36 47
145 78 66 19 102 33 80 30 -123 -13 -185 -16 -185 -8 0 34 97 66 370 122 3 1
45 -44 94 -100z m1035 -130 c8 -3 -120 -35 -285 -71 l-299 -66 -136 84 c-86
53 -147 99 -168 124 -18 23 -31 43 -30 44 2 2 83 19 179 38 l175 34 275 -91
c151 -51 281 -94 289 -96z m-1910 -57 l230 -98 -50 -94 c-28 -52 -55 -99 -59
-104 -5 -5 -134 43 -305 114 -162 68 -293 125 -291 128 4 4 239 151 243 152 1
0 105 -44 232 -98z m1050 5 c9 -11 -9 -19 -90 -42 -55 -15 -98 -29 -96 -31 1
-2 60 5 130 15 70 9 132 14 138 10 16 -10 11 -11 -174 -60 -93 -24 -164 -45
-159 -47 5 -1 98 13 208 32 113 19 205 31 213 26 10 -5 -3 -12 -40 -19 -30 -7
-263 -58 -519 -115 -256 -57 -466 -102 -467 -102 -1 1 23 50 53 108 49 97 58
108 87 113 256 48 676 123 688 124 9 1 22 -5 28 -12z m971 -20 c0 -10 -61 -30
-187 -62 -103 -27 -182 -50 -176 -52 9 -3 279 38 341 52 18 4 22 1 22 -19 0
-15 -7 -27 -17 -30 -10 -2 -98 -26 -195 -52 -98 -26 -177 -49 -175 -50 2 -2
82 10 178 26 207 35 209 35 209 11 0 -20 -2 -21 -259 -88 -57 -15 -99 -29 -94
-30 6 -2 78 8 161 22 170 28 192 30 192 13 0 -9 -92 -35 -263 -75 -144 -34
-271 -64 -281 -65 -16 -3 -28 18 -68 116 -26 66 -49 126 -51 134 -1 12 70 31
318 87 176 40 326 73 333 74 6 1 12 -5 12 -12z m-2489 -127 l44 -20 -42 0
c-46 0 -94 -15 -105 -33 -12 -19 22 -46 66 -52 79 -12 155 24 126 60 -6 7 88
-28 209 -79 121 -50 218 -92 217 -93 -1 -1 -181 -41 -400 -89 l-399 -86 -111
33 c-111 34 -111 34 -66 39 42 5 45 7 51 40 5 29 7 30 9 10 2 -24 3 -24 10 5
4 17 8 22 9 13 1 -20 20 -25 22 -5 1 6 5 1 9 -13 8 -25 8 -25 10 5 l2 30 8
-30 8 -30 2 30 c1 18 4 23 7 13 2 -10 9 -18 14 -18 5 0 10 8 10 18 1 9 5 4 9
-13 l8 -30 2 30 2 30 8 -30 8 -30 2 35 c1 19 4 27 7 18 5 -21 23 -24 24 -5 0
6 4 3 9 -8 8 -18 9 -18 10 5 1 23 2 23 10 5 8 -18 9 -18 10 5 1 14 4 19 7 13
12 -30 23 -9 23 43 l0 55 -26 -20 c-15 -12 -54 -30 -88 -40 -145 -45 -330 -35
-449 23 l-69 33 4 -52 c2 -32 -1 -51 -7 -50 -35 11 -183 58 -195 62 -8 3 45
18 118 33 l133 27 61 -25 c114 -45 328 -41 433 8 47 23 78 68 70 103 -6 22 -3
25 47 34 75 15 72 15 119 -7z m-371 -30 c20 -10 21 -14 8 -27 -34 -33 -208
-23 -208 12 0 8 12 17 28 21 15 3 32 8 37 10 18 7 113 -4 135 -16z m2175 -126
c25 -59 43 -110 40 -112 -3 -3 -72 7 -153 22 -81 16 -210 39 -287 53 l-140 24
-70 -26 c-91 -33 -219 -109 -303 -180 -234 -197 -402 -514 -475 -895 -18 -98
-22 -150 -21 -345 0 -199 3 -243 21 -330 25 -111 24 -137 -2 -48 -110 376 -84
812 70 1183 35 85 40 101 20 67 -32 -55 -94 -225 -124 -338 -80 -304 -90 -569
-31 -841 16 -72 41 -154 84 -273 4 -11 -11 14 -32 55 -54 103 -97 229 -124
362 -28 145 -30 403 -4 548 38 209 83 346 182 545 25 50 39 83 32 74 -9 -11
-143 -48 -401 -110 l-387 -92 -388 155 -387 156 -3 141 c-1 77 -1 141 0 141 2
0 180 -56 397 -124 l394 -124 171 38 c94 20 250 54 346 75 96 21 209 45 250
55 41 10 76 17 77 16 1 0 -6 -63 -16 -139 -10 -75 -16 -137 -15 -137 1 0 21
23 44 50 41 48 43 55 54 147 l11 97 555 121 c430 95 557 119 563 109 4 -7 27
-61 52 -120z m-1785 96 c11 -7 4 -10 -25 -9 -31 0 -36 2 -20 9 26 11 28 11 45
0z m2470 -240 l0 -81 -52 6 c-29 4 -100 15 -158 25 -58 11 -125 23 -150 27
-42 8 -36 10 150 55 107 25 198 47 203 47 4 1 7 -35 7 -79z m-1117 41 c6 -6
-10 -19 -39 -34 -122 -62 -294 -226 -396 -378 -259 -387 -360 -955 -252 -1418
13 -57 23 -106 21 -108 -2 -2 -13 29 -25 69 -115 402 -91 872 63 1204 18 41
31 74 29 74 -12 0 -94 -192 -123 -285 -81 -267 -98 -522 -55 -824 13 -86 58
-264 88 -346 4 -11 -7 4 -24 33 -48 78 -98 231 -121 361 -22 131 -27 386 -10
509 40 271 127 516 251 707 29 44 45 73 36 66 -25 -21 -124 -185 -167 -277
-54 -114 -103 -267 -136 -419 -25 -119 -27 -149 -27 -350 -1 -178 3 -236 18
-305 25 -117 63 -234 97 -302 39 -77 29 -74 -15 5 -142 253 -180 708 -91 1090
79 341 255 630 490 805 33 25 105 67 160 94 95 47 103 49 160 44 32 -3 63 -10
68 -15z m250 -43 l48 -10 -38 -27 c-21 -15 -43 -30 -50 -34 -7 -4 -54 2 -105
14 l-93 22 60 28 c62 30 70 30 178 7z m177 -35 c-1 -5 -31 -26 -67 -48 -102
-61 -275 -238 -362 -370 -65 -98 -161 -279 -161 -302 0 -4 21 30 46 77 105
195 256 379 403 491 67 50 227 137 236 127 3 -3 -24 -24 -61 -48 -351 -227
-598 -600 -696 -1050 -19 -91 -22 -134 -22 -320 0 -184 3 -229 22 -313 43
-193 121 -383 214 -519 39 -58 40 -78 1 -36 -34 39 -99 140 -137 216 -77 153
-130 361 -145 569 l-8 118 -2 -98 c-2 -195 33 -390 103 -564 19 -48 34 -89 32
-90 -2 -2 -19 32 -39 76 -130 284 -162 552 -112 931 5 32 4 33 -4 7 -5 -15
-17 -82 -27 -149 -28 -200 -13 -441 42 -643 4 -16 3 -17 -5 -5 -12 19 -37 116
-58 227 -27 138 -24 444 5 591 93 467 320 822 691 1080 67 47 112 65 111 45z
m305 -52 l30 -7 -40 -13 c-133 -44 -328 -179 -432 -298 -218 -252 -353 -570
-392 -925 -46 -414 66 -813 296 -1055 34 -36 57 -63 50 -60 -7 2 -42 14 -78
26 -64 21 -66 23 -123 108 -105 158 -179 336 -222 533 -15 68 -19 126 -19 295
1 194 3 219 29 329 36 156 68 250 126 371 139 290 361 529 625 672 59 32 91
37 150 24z m-682 -20 c43 -10 79 -20 81 -22 1 -2 -30 -35 -71 -73 l-73 -69
-110 24 -109 23 22 25 c46 50 132 111 157 111 14 -1 60 -9 103 -19z m795 -70
c-255 -83 -470 -283 -612 -568 -52 -104 -103 -240 -94 -249 3 -2 10 15 17 38
7 24 35 88 62 143 122 247 351 470 567 553 226 87 429 58 624 -90 132 -99 237
-295 290 -540 32 -149 32 -425 0 -585 -67 -335 -215 -598 -447 -789 -281 -233
-610 -264 -880 -83 -279 187 -448 603 -407 1008 56 560 407 1064 815 1171 40
10 90 19 112 19 35 0 30 -3 -47 -28z m-2920 -250 l399 -159 357 86 c196 46
360 82 363 78 4 -4 -2 -15 -13 -25 -12 -12 -88 -35 -221 -67 -112 -26 -201
-50 -198 -52 3 -3 310 57 380 74 15 4 16 3 6 -4 -7 -5 -76 -27 -152 -48 -76
-21 -137 -39 -135 -41 1 -2 63 10 136 27 74 17 138 29 143 27 36 -12 -62 -42
-351 -110 l-331 -78 -393 177 c-216 97 -395 179 -397 180 -2 2 -2 6 1 9 2 3
60 -18 128 -45 68 -27 125 -48 127 -47 1 2 -55 30 -127 62 -71 33 -128 61
-125 63 2 2 95 -30 206 -72 111 -42 204 -75 205 -73 2 2 -90 42 -203 89 -114
48 -209 91 -211 97 -2 6 -1 11 1 11 3 0 185 -71 405 -159z m1907 127 c55 -12
102 -23 104 -24 2 -2 -20 -36 -50 -76 -29 -40 -54 -74 -54 -76 -3 -4 -216 46
-222 52 -8 8 97 146 110 146 7 0 57 -10 112 -22z m-1953 -304 c178 -80 338
-153 356 -161 32 -15 32 -16 31 -87 -1 -184 -36 -1266 -41 -1271 -3 -3 -12 -3
-20 0 -16 6 -27 104 -29 264 -1 70 -3 65 -19 -74 -10 -82 -19 -152 -20 -155
-8 -14 -18 122 -20 255 l-3 150 -18 -180 c-9 -99 -18 -186 -18 -193 -1 -7 -5
-10 -11 -7 -6 4 -11 96 -11 238 l-2 232 -17 -200 c-10 -110 -19 -210 -19 -223
-1 -13 -5 -20 -11 -17 -6 4 -11 106 -11 268 l-2 262 -18 -215 c-9 -118 -18
-232 -18 -252 -1 -21 -6 -38 -12 -38 -8 0 -10 95 -8 332 4 363 0 357 -27 -39
-10 -153 -22 -263 -27 -263 -7 0 -8 134 -4 376 3 206 4 374 2 372 -2 -2 -13
-154 -24 -338 -12 -184 -26 -348 -31 -365 -6 -19 -9 121 -7 395 2 234 2 414 1
400 -2 -14 -13 -169 -24 -345 -23 -378 -29 -447 -38 -441 -4 2 -4 195 1 428 4
232 6 437 5 453 -2 17 -15 -168 -31 -409 -15 -242 -29 -442 -32 -444 -3 -3 -7
-3 -9 -1 -2 2 0 204 6 449 5 245 8 463 6 485 -2 22 -16 -171 -31 -430 -16
-259 -31 -472 -33 -474 -2 -2 -6 -2 -9 1 -3 2 0 218 6 479 6 261 9 492 7 514
-2 22 -16 -187 -32 -465 -16 -278 -30 -506 -31 -508 -1 -1 -10 0 -19 4 -15 6
-16 65 -16 695 0 379 2 689 5 689 2 0 149 -66 327 -146z m1811 94 c53 -12 97
-25 97 -29 0 -7 -66 -135 -77 -148 -2 -4 -213 39 -221 44 -9 7 75 155 88 155
8 0 59 -10 113 -22z m-775 -224 c-123 -379 -109 -803 38 -1123 19 -41 34 -75
34 -77 0 -5 -112 -35 -117 -31 -2 3 -8 55 -13 117 -5 62 -11 114 -13 117 -3 2
-8 -55 -12 -127 -4 -71 -11 -130 -15 -130 -5 0 -15 -3 -23 -6 -13 -4 -16 25
-23 193 -8 191 -8 195 -16 108 -4 -49 -10 -143 -14 -207 -5 -105 -8 -118 -24
-118 -20 0 -23 23 -37 355 l-8 170 -7 -230 c-9 -263 -16 -319 -39 -323 -14 -2
-17 22 -22 194 -4 109 -7 243 -8 298 0 66 -3 94 -9 81 -5 -11 -9 -65 -9 -120
-1 -55 -4 -184 -8 -287 -5 -166 -8 -187 -24 -191 -22 -6 -26 48 -36 488 l-8
320 -7 -270 c-14 -485 -19 -556 -35 -562 -7 -3 -16 -4 -18 -2 -2 3 -7 164 -11
359 -11 560 -19 581 -28 73 l-8 -453 -40 -11 c-22 -5 -42 -8 -44 -6 -7 7 34
1338 41 1345 7 7 549 140 576 141 13 1 10 -13 -13 -85z m671 6 c46 -10 86 -21
88 -24 10 -10 -50 -156 -63 -156 -18 0 -197 40 -202 45 -2 2 8 40 23 84 24 72
29 80 48 76 12 -3 60 -14 106 -25z m-81 -223 c51 -12 93 -26 93 -32 1 -38 -36
-175 -47 -175 -13 0 -197 41 -202 45 -3 2 15 98 28 147 6 21 16 38 23 38 7 -1
54 -11 105 -23z m-48 -250 l95 -23 -3 -59 c-1 -33 -5 -77 -8 -99 -7 -43 5 -42
-141 -10 l-73 16 0 53 c0 77 11 145 24 145 6 -1 54 -11 106 -23z m-5 -265 c91
-21 89 -19 97 -155 l4 -68 -35 6 c-20 3 -67 14 -106 23 l-70 17 -7 45 c-3 25
-7 71 -7 103 -1 55 0 57 22 52 12 -3 58 -13 102 -23z m109 -294 c1 -2 14 -49
27 -106 l25 -103 -36 6 c-19 3 -66 14 -105 24 l-70 17 -22 85 c-12 46 -22 93
-22 105 l-1 21 101 -23 c55 -12 102 -24 103 -26z m-1602 -339 c246 -109 299
-129 328 -125 19 3 193 55 385 115 315 98 351 108 363 93 6 -9 9 -19 5 -23 -5
-4 -88 -33 -185 -65 -97 -32 -176 -60 -174 -62 2 -2 82 19 177 47 203 58 211
59 216 45 2 -5 -48 -28 -111 -49 -63 -22 -113 -41 -111 -43 2 -2 57 11 124 28
70 19 128 29 138 25 17 -7 17 -8 -2 -16 -11 -5 -205 -65 -431 -134 l-411 -126
-311 138 c-172 76 -312 144 -312 151 0 17 -3 18 122 -33 61 -25 113 -43 114
-42 2 2 -51 30 -116 62 -66 33 -120 65 -120 72 0 7 1 13 3 13 2 0 97 -40 212
-90 115 -49 210 -88 212 -87 1 2 -93 49 -210 105 -125 59 -213 107 -215 116
-2 9 1 16 7 16 5 0 142 -59 303 -131z m1596 78 l83 -22 54 -114 c30 -62 49
-111 42 -108 -7 2 -48 12 -92 22 -44 10 -88 22 -97 27 -17 8 -108 182 -108
206 0 16 20 14 118 -11z m540 -94 c106 -178 288 -318 478 -367 89 -23 270 -21
365 3 95 25 186 66 273 124 84 58 68 35 -28 -37 -212 -159 -439 -210 -646
-144 -199 64 -343 196 -454 416 -20 39 -34 72 -32 72 2 0 22 -30 44 -67z"/>
<path d="M3329 3981 c-22 -18 -23 -21 -7 -37 34 -35 152 -35 186 0 16 16 16
18 -7 37 -17 14 -39 19 -86 19 -47 0 -69 -5 -86 -19z m111 -21 c0 -5 -11 -10
-25 -10 -14 0 -25 5 -25 10 0 6 11 10 25 10 14 0 25 -4 25 -10z"/>
<path d="M3310 3909 c0 -12 10 -23 26 -29 30 -12 88 -13 98 -2 4 4 15 7 24 8
10 1 27 2 40 3 15 1 22 7 22 20 0 19 -2 19 -35 5 -19 -7 -50 -14 -70 -14 -20
0 -51 7 -70 14 -33 14 -35 14 -35 -5z"/>
<path d="M3738 3653 c7 -3 16 -2 19 1 4 3 -2 6 -13 5 -11 0 -14 -3 -6 -6z"/>
<path d="M3748 3473 c7 -3 16 -2 19 1 4 3 -2 6 -13 5 -11 0 -14 -3 -6 -6z"/>
<path d="M1540 3540 c0 -28 35 -43 89 -36 25 3 62 6 81 8 25 2 36 8 38 22 3
15 0 17 -14 11 -40 -17 -132 -18 -163 -2 -29 15 -31 14 -31 -3z"/>
<path d="M765 3301 c11 -5 151 -56 310 -115 l290 -106 315 84 c173 47 310 85
305 85 -6 1 -149 -26 -318 -58 l-307 -59 -297 89 c-266 79 -359 104 -298 80z"/>
<path d="M750 3217 c3 -3 141 -55 307 -116 l302 -111 291 77 c160 43 287 79
282 81 -5 1 -129 -22 -277 -53 -148 -30 -278 -55 -291 -55 -17 0 -523 148
-600 176 -11 4 -17 5 -14 1z"/>
<path d="M1958 3153 c7 -3 16 -2 19 1 4 3 -2 6 -13 5 -11 0 -14 -3 -6 -6z"/>
<path d="M770 3117 c3 -3 135 -53 294 -111 l290 -106 293 77 c161 43 290 79
286 80 -5 2 -136 -24 -293 -56 l-285 -59 -275 84 c-151 47 -284 87 -295 90
-11 4 -18 4 -15 1z"/>
<path d="M1958 3063 c7 -3 16 -2 19 1 4 3 -2 6 -13 5 -11 0 -14 -3 -6 -6z"/>
<path d="M2494 3058 l-19 -23 23 19 c21 18 27 26 19 26 -2 0 -12 -10 -23 -22z"/>
<path d="M2711 2254 c0 -11 3 -14 6 -6 3 7 2 16 -1 19 -3 4 -6 -2 -5 -13z"/>
<path d="M2701 2214 c0 -11 3 -14 6 -6 3 7 2 16 -1 19 -3 4 -6 -2 -5 -13z"/>
<path d="M3798 3021 c-92 -30 -186 -89 -270 -170 -173 -165 -304 -424 -355
-704 -24 -131 -24 -403 0 -517 65 -304 226 -527 433 -602 44 -15 82 -21 149
-20 166 1 293 60 441 207 234 233 363 573 364 955 0 251 -52 444 -166 617 -66
100 -135 162 -233 211 -72 36 -80 37 -190 39 -91 2 -128 -1 -173 -16z m582
-529 c60 -229 40 -525 -51 -774 -83 -227 -229 -421 -399 -530 -41 -26 -79 -48
-83 -48 -5 0 25 27 66 59 249 201 416 560 446 961 9 127 1 305 -19 409 -5 29
-10 59 -9 65 1 17 28 -62 49 -142z m-166 15 c108 -372 -3 -836 -264 -1098 -36
-36 -90 -82 -120 -101 -65 -41 -110 -59 -65 -26 128 94 251 255 325 424 109
248 147 590 95 839 -8 38 -15 72 -15 75 1 16 23 -38 44 -113z m-139 -100 c35
-161 10 -416 -55 -586 -69 -177 -208 -351 -330 -414 -44 -23 -49 -24 -25 -6
49 36 148 140 183 191 45 65 116 211 141 288 66 205 78 439 35 680 -9 51 37
-87 51 -153z m-159 -20 c21 -105 15 -289 -15 -400 -54 -206 -182 -390 -322
-466 l-44 -23 40 33 c183 155 288 373 315 655 8 85 0 247 -15 320 -6 28 -5 28
9 -4 9 -19 23 -70 32 -115z m-171 43 c9 -30 19 -100 22 -155 12 -219 -72 -445
-214 -575 -92 -85 -123 -90 -41 -8 40 40 88 99 107 131 47 81 98 235 112 342
12 93 7 243 -11 305 -5 18 -6 29 -1 24 5 -5 17 -34 26 -64z m-142 -180 c1
-117 -16 -195 -64 -297 -33 -70 -111 -161 -166 -193 -30 -18 -27 -12 25 39 45
44 72 83 106 153 60 123 80 222 74 377 -4 112 -4 115 10 71 9 -27 15 -88 15
-150z"/>
<path d="M3151 2324 c0 -11 3 -14 6 -6 3 7 2 16 -1 19 -3 4 -6 -2 -5 -13z"/>
<path d="M980 2870 c8 -5 20 -10 25 -10 6 0 3 5 -5 10 -8 5 -19 10 -25 10 -5
0 -3 -5 5 -10z"/>
<path d="M1598 2773 c7 -3 16 -2 19 1 4 3 -2 6 -13 5 -11 0 -14 -3 -6 -6z"/>
</g>
</svg>
